# xmcd
#
# Track frame offsets:
#	150
#	12965
#	26505
#	46057
#	61967
#	76160
#	100102
#	114690
#	130012
#	145312
#	156662
#	173105
#	187730
#	207192
#	225207
#	240045
#	251884
#	267910
#	282182
#	294255
#	308200
#
# Disc length: 4327
#
# Revision: 3
# Processed by: cddbd v1.5.1PL0 Copyright (c) Steve Scherf et al.
# Submitted via: CDValet v3.31 - Copyright (c) 1997 Greg Leichner
# Normalized: r1:TDELIM( - ),TSWAP
#
DISCID=1110e515
DTITLE=Various Artist - Boot Scootin' 1
DYEAR=1900
DGENRE=
TTITLE0=LeAnn Rimes - Blue
TTITLE1=Mark Chesnutt - It Sure Is Monday
TTITLE2=Garth Brooks - Shameless
TTITLE3=Rhett Akins - What They're Talkin' About
TTITLE4=Marty Stuart - Tempted
TTITLE5=David Allan Coe - You Never Even Called Me By My Name [LP Version]
TTITLE6=Wade Hayes - Old Enough To Know Better [Radio Edit]
TTITLE7=Gene Watson - Love In The Hot Afternoon
TTITLE8=Time McGraw - I Like It, I Love It
TTITLE9=Alan Jackson - Tall, Tall Trees
TTITLE10=Mark Wills - Places I've Never Been
TTITLE11=George Strait - You Look So Good In Love
TTITLE12=Tracy Byrd - Watermelon Crawl
TTITLE13=Hank Williams, Jr. - All My Rowdy Friends (Have Settled Down)
TTITLE14=Wynonna - Girls With Guitars
TTITLE15=Freddy Fender - Before The Next Teardrop Falls
TTITLE16=Lee Roy Parnell - Givin' Water To A Drowning Man
TTITLE17=George Strait - Ocean Front Property
TTITLE18=Skeeter Davis - The End Of The World
TTITLE19=Marty Stuart and Travis Tritt - Honky Tonkin's What I Do Best
TTITLE20=Alabama - Mountain Music
EXTD=
EXTT0=
EXTT1=
EXTT2=
EXTT3=
EXTT4=
EXTT5=
EXTT6=
EXTT7=
EXTT8=
EXTT9=
EXTT10=
EXTT11=
EXTT12=
EXTT13=
EXTT14=
EXTT15=
EXTT16=
EXTT17=
EXTT18=
EXTT19=
EXTT20=
PLAYORDER=
